<svg width="689" height="610" viewBox="0 0 689 610" fill="none" xmlns="http://www.w3.org/2000/svg">
<path d="M13.5 285.119C13.5 366.043 54.6494 438.702 122.414 488.462C120.455 499.134 117.989 509.219 115.062 517.762C104.955 547.269 81.9441 581.381 73.1126 593.703C105.2 591.292 135.375 587.676 170.259 576.024C189.219 569.691 223.143 555.746 245.755 544.991C276.845 552.629 310.159 556.737 345.123 556.737C535.345 556.737 674.979 435.129 674.979 285.119C674.979 135.108 535.345 13.5 345.123 13.5C154.9 13.5 13.5 135.108 13.5 285.119Z" stroke="white" stroke-width="27"/>
<path d="M392.592 212.507V235.336H292.736V212.507H392.592ZM321.84 170.5H351.445V337.613C351.445 345.223 352.658 350.931 355.083 354.736C357.592 358.465 360.77 360.976 364.617 362.269C368.548 363.487 372.688 364.096 377.037 364.096C380.298 364.096 382.974 363.944 385.065 363.639C387.156 363.259 388.829 362.954 390.083 362.726L396.105 386.926C394.097 387.61 391.296 388.295 387.7 388.98C384.103 389.741 379.545 390.122 374.026 390.122C365.663 390.122 357.467 388.486 349.438 385.213C341.493 381.941 334.886 376.957 329.617 370.26C324.432 363.563 321.84 355.116 321.84 344.919V170.5Z" fill="white"/>
</svg>
